<?xml version="1.0" standalone="no"?>
<!DOCTYPE svg PUBLIC "-//W3C//DTD SVG 20010904//EN"
 "http://www.w3.org/TR/2001/REC-SVG-20010904/DTD/svg10.dtd">
<svg version="1.0" xmlns="http://www.w3.org/2000/svg"
 width="400.000000pt" height="400.000000pt" viewBox="0 0 400.000000 400.000000"
 preserveAspectRatio="xMidYMid meet">

<g transform="translate(0.000000,400.000000) scale(0.100000,-0.100000)"
fill="#000000" stroke="none">
<path d="M1026 3503 c-13 -21 -160 -272 -326 -558 -166 -286 -367 -631 -446
-767 -79 -135 -144 -253 -144 -261 0 -8 111 -205 247 -438 240 -413 331 -569
512 -881 48 -84 108 -187 132 -228 l45 -75 954 0 954 0 62 105 c422 721 874
1505 874 1515 0 11 -263 471 -570 995 -38 63 -125 214 -195 335 -71 121 -139
237 -152 258 l-23 37 -950 0 -950 0 -24 -37z m973 -593 c24 -11 49 -20 55 -20
21 0 96 -61 111 -90 11 -21 23 -28 56 -33 59 -8 90 -35 117 -103 13 -32 35
-73 48 -91 28 -37 31 -83 8 -118 -13 -20 -14 -31 -5 -56 22 -64 6 -128 -45
-175 -30 -29 -58 -125 -56 -197 0 -31 -5 -76 -13 -98 -19 -54 -19 -58 8 -69
21 -9 21 -9 -4 -9 -32 -1 -43 -32 -34 -95 6 -36 3 -47 -19 -73 -29 -35 -91
-67 -107 -57 -17 10 -2 164 17 185 13 14 11 19 -11 44 -15 15 -27 26 -29 24
-6 -9 -36 -78 -36 -84 0 -4 7 -2 15 5 8 7 15 19 15 26 0 17 16 19 25 3 4 -5 0
-18 -9 -28 -8 -9 -27 -39 -42 -66 -36 -70 -48 -79 -39 -30 4 22 12 46 18 54
10 12 9 14 -5 8 -24 -8 -23 4 2 36 20 25 20 28 4 58 -12 24 -18 28 -24 18 -5
-7 -4 -21 1 -31 12 -22 -1 -50 -33 -72 -31 -22 -35 -21 -71 18 -18 19 -41 36
-52 38 -15 3 -20 11 -19 36 2 35 -7 40 -26 17 -7 -8 -19 -15 -26 -15 -16 0
-19 -16 -5 -25 6 -3 45 -56 89 -118 44 -62 98 -129 121 -150 36 -32 47 -37 90
-37 39 0 53 4 64 21 9 11 29 30 45 42 79 57 222 179 222 190 0 7 -4 6 -11 -3
-9 -12 -10 -12 -5 4 4 10 1 25 -5 32 -16 20 2 17 30 -5 17 -13 35 -17 57 -14
27 4 34 0 55 -28 48 -69 77 -88 167 -109 119 -28 177 -57 247 -122 81 -75 128
-158 177 -313 28 -87 51 -141 70 -163 15 -18 28 -38 28 -45 0 -7 -16 -35 -35
-64 -25 -38 -44 -55 -72 -64 -52 -16 -165 -72 -203 -99 -17 -12 -33 -21 -34
-19 -2 2 -9 14 -15 27 -11 20 -10 27 6 44 18 21 18 21 -4 9 -27 -14 -33 -14
-33 0 0 6 -12 38 -27 71 l-26 59 24 17 c47 33 139 148 139 174 0 14 -47 9 -60
-7 -7 -8 -30 -48 -51 -88 -21 -39 -39 -68 -39 -63 0 5 13 50 29 100 34 107 51
213 31 201 -15 -9 -70 -124 -70 -147 0 -9 -4 -20 -10 -23 -6 -4 -10 6 -10 21
0 42 -33 145 -45 140 -5 -2 -9 -8 -8 -14 12 -54 20 -194 14 -222 l-9 -35 -1
33 c-2 50 -39 109 -84 133 -14 8 -10 -3 14 -46 49 -88 39 -168 -31 -248 -40
-46 -91 -71 -125 -63 -25 6 -31 27 -25 94 2 27 -3 27 -37 5 -23 -15 -48 -17
-171 -15 -86 2 -157 8 -175 15 l-30 13 34 23 34 22 -30 -5 c-16 -3 -73 -8
-125 -11 -139 -9 -217 -23 -285 -49 -76 -30 -182 -48 -295 -50 -102 -1 -112 4
-153 88 -51 103 -47 150 20 250 37 56 36 71 -3 35 -33 -31 -70 -95 -79 -137
-8 -36 -25 -34 -25 4 0 14 -4 22 -10 19 -12 -8 -4 -43 26 -111 12 -28 25 -69
29 -90 l6 -39 -25 30 -25 29 25 -67 c13 -38 24 -74 24 -81 0 -7 -16 -33 -35
-57 -30 -38 -32 -45 -17 -51 10 -4 0 -7 -25 -7 -41 -1 -43 -2 -43 -31 0 -30
-11 -37 -44 -24 -9 3 -35 34 -59 68 -74 104 -73 97 -27 173 22 38 44 68 48 68
38 2 85 63 76 100 -6 22 -11 25 -48 23 -39 -3 -42 -1 -60 36 -17 35 -18 45 -6
122 22 149 107 287 210 339 25 12 77 32 115 45 109 34 112 36 147 89 26 40 39
51 60 51 15 0 43 11 62 24 19 13 56 27 82 31 67 10 71 12 78 56 7 42 16 48 36
24 11 -13 15 -13 21 -3 5 7 9 21 9 31 0 14 -4 16 -18 8 -22 -12 -42 3 -42 30
0 11 -9 19 -22 21 -21 3 -23 8 -23 61 0 46 -3 58 -17 63 -13 4 -18 16 -18 45
0 23 4 38 9 34 11 -6 31 25 31 49 0 8 -7 21 -15 30 -16 16 -4 32 15 21 25 -16
66 51 54 87 -6 19 -6 19 -21 -1 -8 -12 -28 -28 -45 -37 -27 -14 -31 -14 -49 2
-18 16 -20 16 -37 1 -20 -18 -42 -22 -42 -8 0 5 7 25 16 46 l15 37 30 -28 c26
-24 31 -26 52 -15 13 7 31 25 40 41 9 15 24 27 34 26 9 0 29 17 46 42 38 56
99 96 146 96 20 0 66 -4 103 -8 67 -9 67 -9 98 24 34 36 41 63 9 34 -21 -19
-21 -18 -9 7 12 27 8 37 -39 86 -20 21 -25 8 -7 -19 9 -12 16 -29 16 -38 -1
-11 -4 -9 -12 5 -17 32 -61 76 -90 91 -33 17 -98 18 -121 2 -15 -11 -10 -13
32 -14 36 0 61 -8 90 -27 54 -36 52 -51 -1 -27 -51 23 -96 25 -142 6 -36 -15
-81 -78 -72 -101 7 -19 -28 -41 -79 -50 -22 -3 -47 -10 -55 -15 -12 -7 -11
-10 5 -15 77 -25 85 -47 28 -71 -21 -9 -46 -21 -56 -26 -13 -6 -23 -5 -33 3
-13 10 -12 15 7 36 25 25 20 30 -11 11 -16 -10 -23 -10 -36 4 -18 17 -17 19
19 83 18 31 21 44 13 59 -9 14 -7 20 8 30 41 24 68 57 61 74 -22 50 -18 59 26
74 32 11 45 21 49 39 5 21 13 25 68 30 43 4 69 12 85 27 20 18 43 28 72 31 6
0 30 -8 54 -19z m1261 -218 c-1 -14 -40 43 -40 58 0 8 9 0 20 -18 11 -18 20
-36 20 -40z m106 -172 c48 -80 148 -248 221 -374 l135 -230 -23 -40 c-13 -23
-72 -124 -132 -226 -60 -102 -148 -250 -195 -330 -72 -123 -125 -201 -111
-165 10 24 53 110 58 115 6 5 24 39 83 151 l29 56 0 438 c0 241 -3 440 -6 443
-3 3 -5 14 -5 24 0 10 -3 18 -7 18 -5 0 -13 10 -19 23 -18 38 -69 132 -74 137
-5 5 -50 94 -59 115 -12 32 28 -27 105 -155z m-1729 -297 c-3 -10 -5 -2 -5 17
0 19 2 27 5 18 2 -10 2 -26 0 -35z m1623 -1088 c0 -2 -9 -19 -20 -37 -22 -37
-27 -27 -7 15 10 23 27 37 27 22z m-1263 -245 c87 -24 274 -103 314 -132 50
-37 35 -69 -41 -92 -23 -7 -41 -16 -40 -22 1 -5 37 -55 81 -112 43 -56 79
-104 79 -107 0 -13 -60 -3 -82 14 -42 33 -81 97 -73 121 6 18 3 20 -17 15 -46
-11 -164 -22 -216 -20 -38 2 -55 -2 -59 -11 -8 -20 -23 -17 -23 4 0 29 -7 30
-66 10 -31 -10 -96 -23 -145 -27 -49 -5 -92 -11 -96 -14 -3 -3 4 -22 15 -41
11 -19 18 -37 15 -40 -4 -3 -58 -6 -122 -6 -102 0 -117 2 -136 20 -20 18 -23
19 -35 5 -20 -24 -160 -20 -160 5 0 16 112 130 127 130 13 0 14 8 8 43 -8 50
-23 201 -20 205 2 2 19 -20 40 -48 20 -28 45 -55 55 -60 32 -17 79 -11 138 19
75 38 241 108 322 137 36 12 65 23 65 23 0 1 32 -8 72 -19z m1099 -80 c-25
-33 -64 -96 -87 -138 -23 -42 -44 -79 -46 -82 -10 -11 -53 57 -53 83 0 43 24
91 56 112 44 29 168 94 172 90 2 -2 -17 -31 -42 -65z m-528 -18 c2 -17 -4 -54
-12 -83 -26 -88 -19 -117 32 -133 12 -4 30 -19 39 -32 12 -19 19 -22 29 -13
11 9 14 9 14 0 0 -27 19 2 25 37 l6 38 67 11 c37 5 71 7 75 3 5 -4 -23 -11
-62 -15 l-70 -7 -11 -56 c-6 -32 -16 -72 -21 -89 l-11 -33 -72 0 -73 0 -16 53
c-8 28 -18 64 -21 80 -7 29 -23 36 -32 12 -5 -13 4 -66 21 -122 7 -20 4 -23
-23 -23 -20 0 -35 7 -41 18 -19 36 -52 193 -49 234 3 38 5 43 27 40 15 -1 30
7 44 24 25 33 109 94 122 90 6 -1 11 -17 13 -34z m-570 -359 c-10 -2 -26 -2
-35 0 -10 3 -2 5 17 5 19 0 27 -2 18 -5z"/>
<path d="M2144 2718 c7 -18 11 -40 9 -48 -3 -10 -1 -9 7 2 8 13 7 25 -5 48
-21 40 -27 38 -11 -2z"/>
<path d="M1670 2694 c0 -6 6 -17 14 -23 10 -9 19 -7 37 9 l24 20 -28 -12 c-23
-10 -30 -9 -38 3 -5 8 -9 9 -9 3z"/>
<path d="M1763 2674 c-10 -14 -26 -35 -37 -46 -15 -17 -16 -22 -5 -29 22 -14
31 -11 27 9 -1 10 4 29 13 43 26 41 30 49 25 49 -3 0 -13 -12 -23 -26z"/>
<path d="M2161 2607 c-13 -6 -23 -15 -22 -19 0 -5 1 -14 1 -21 0 -7 16 -19 35
-26 60 -21 63 -29 92 -269 6 -50 17 -71 30 -58 4 3 0 17 -7 31 -10 20 -11 28
-2 37 9 9 12 8 12 -4 0 -26 27 -43 45 -28 19 16 19 25 -2 45 -9 9 -20 38 -24
63 -4 26 -10 60 -14 76 -7 25 -5 27 11 22 11 -3 25 -2 33 3 11 7 7 13 -17 25
-17 9 -36 25 -42 36 -10 19 -10 19 25 -1 19 -11 40 -19 47 -17 7 3 -11 18 -40
34 -33 19 -55 39 -61 56 -8 23 -16 28 -43 28 -18 0 -44 -6 -57 -13z"/>
<path d="M1870 2400 c-13 -8 -10 -14 15 -36 17 -14 24 -23 18 -19 -15 7 -83
-23 -83 -36 0 -12 17 -11 25 1 5 7 11 8 19 1 7 -6 17 -6 26 -1 19 12 30 12 30
1 0 -5 -12 -14 -27 -20 l-28 -11 30 5 c46 9 80 38 83 72 3 27 -1 32 -29 42
-39 13 -59 14 -79 1z"/>
<path d="M2080 2387 c-57 -28 -17 -133 48 -125 15 2 27 9 28 18 2 29 4 31 20
15 9 -9 19 -13 23 -10 3 4 -9 19 -27 35 l-33 27 33 16 33 16 -28 10 c-37 14
-66 14 -97 -2z"/>
<path d="M1700 2181 c0 -12 5 -21 10 -21 6 0 10 6 10 14 0 8 -4 18 -10 21 -5
3 -10 -3 -10 -14z"/>
<path d="M1964 2158 c-4 -7 2 -18 14 -26 12 -8 22 -21 22 -28 0 -8 8 -14 18
-14 10 0 23 -5 30 -12 6 -6 14 -9 18 -5 9 9 -35 67 -52 67 -8 0 -14 4 -14 9 0
14 -29 21 -36 9z"/>
<path d="M2050 2150 c0 -5 5 -10 11 -10 5 0 7 5 4 10 -3 6 -8 10 -11 10 -2 0
-4 -4 -4 -10z"/>
<path d="M2271 2134 c0 -11 3 -14 6 -6 3 7 2 16 -1 19 -3 4 -6 -2 -5 -13z"/>
<path d="M2003 2045 c-31 -11 -32 -11 -11 -24 l21 -13 -24 -19 c-24 -19 -24
-19 -4 -34 11 -9 26 -13 33 -10 8 3 18 5 23 5 12 0 11 34 -2 47 -16 16 33 25
66 13 35 -13 35 -13 35 10 0 16 -7 20 -36 20 -19 0 -43 4 -52 8 -10 5 -31 4
-49 -3z"/>
<path d="M1884 2038 c-3 -4 13 -8 35 -8 23 0 41 2 41 4 0 8 -71 12 -76 4z"/>
<path d="M2174 1886 c3 -11 6 -24 6 -29 0 -4 11 0 25 9 29 19 26 30 -11 37
-22 4 -25 2 -20 -17z"/>
<path d="M1970 1850 c-12 -22 -36 -27 -43 -7 -2 6 -7 9 -11 5 -10 -9 22 -68
37 -68 23 0 34 15 41 53 8 41 -6 50 -24 17z"/>
<path d="M2415 1620 c-66 -27 -150 -57 -187 -66 -38 -10 -68 -21 -68 -25 0 -8
85 11 162 36 59 19 218 92 218 100 0 3 -1 5 -2 4 -2 0 -57 -23 -123 -49z"/>
<path d="M1428 1641 c13 -11 36 -29 50 -40 15 -11 25 -21 22 -23 -3 -2 -34
-25 -70 -50 -36 -25 -88 -69 -115 -97 -53 -55 -125 -164 -125 -190 0 -9 15 11
33 44 36 67 142 180 231 245 56 41 61 42 90 31 60 -25 117 -40 111 -31 -4 6
-12 10 -18 10 -18 0 -132 56 -185 90 -26 18 -37 22 -24 11z"/>
<path d="M1095 1150 c3 -5 8 -10 11 -10 2 0 4 5 4 10 0 6 -5 10 -11 10 -5 0
-7 -4 -4 -10z"/>
<path d="M2950 1050 c-26 -23 -30 -30 -15 -26 11 2 47 7 80 11 l60 7 -35 19
c-47 24 -50 24 -90 -11z"/>
<path d="M1390 664 c0 -13 68 -79 75 -73 2 3 -13 23 -35 44 -22 22 -40 35 -40
29z"/>
<path d="M1366 530 c13 -48 24 -70 34 -70 15 0 12 11 -16 55 -18 29 -23 33
-18 15z"/>
</g>
</svg>
