<?xml version="1.0" standalone="no"?>
<!DOCTYPE svg PUBLIC "-//W3C//DTD SVG 20010904//EN"
 "http://www.w3.org/TR/2001/REC-SVG-20010904/DTD/svg10.dtd">
<svg version="1.0" xmlns="http://www.w3.org/2000/svg"
 width="600.000000pt" height="300.000000pt" viewBox="0 0 600.000000 300.000000"
 preserveAspectRatio="xMidYMid meet">

<g transform="translate(0.000000,300.000000) scale(0.100000,-0.100000)"
fill="#000000" stroke="none">
<path d="M5185 1938 l-8 -148 -68 0 -69 0 -1 -42 c-1 -24 -3 -53 -4 -65 -2
-22 1 -23 68 -23 l69 0 -6 -87 c-12 -155 -14 -166 -42 -159 -13 3 -35 9 -48
12 -20 5 -24 1 -29 -23 -3 -15 -10 -45 -15 -65 l-10 -38 42 -10 c22 -6 46 -13
53 -15 6 -2 13 -21 15 -42 2 -21 9 -39 16 -39 6 -1 14 -3 17 -4 3 -1 14 -3 24
-4 11 0 22 -4 26 -7 13 -13 45 4 51 26 6 22 7 23 43 10 20 -7 64 -26 97 -43
l60 -30 24 36 c14 21 27 39 31 42 3 3 8 13 12 23 6 15 -7 25 -76 57 -45 21
-102 44 -126 51 l-43 13 7 105 c11 154 18 195 35 198 8 1 41 5 74 8 l58 7 -5
61 c-4 34 -6 64 -7 66 0 2 -30 1 -66 -2 l-66 -6 4 140 3 140 -32 -4 c-18 -3
-33 -2 -33 2 0 3 -15 6 -34 6 l-34 1 -7 -148z"/>
<path d="M798 1968 c-11 -17 -18 -19 -34 -10 -22 12 -32 1 -66 -68 -16 -34
-16 -36 2 -50 19 -14 17 -19 -48 -107 -48 -66 -72 -91 -83 -87 -11 3 -34 -12
-63 -42 -36 -36 -44 -49 -35 -60 6 -7 8 -21 5 -31 -6 -21 7 -40 55 -76 27 -20
38 -24 47 -15 8 8 15 8 20 2 5 -5 35 -37 67 -72 53 -56 58 -65 47 -83 -10 -16
-10 -22 2 -34 8 -8 24 -30 36 -50 23 -37 38 -43 58 -23 9 9 15 9 23 1 13 -13
47 1 62 24 4 7 13 13 20 13 18 0 39 37 26 46 -12 7 39 44 139 100 34 20 62 41
62 46 0 6 -12 35 -26 65 l-27 53 -66 -36 c-36 -21 -91 -54 -122 -75 l-56 -38
-83 90 -82 90 20 22 c11 12 49 63 84 113 l64 92 56 -23 c108 -44 190 -67 199
-58 6 6 11 20 12 32 1 11 4 21 7 21 4 0 7 6 7 13 0 6 3 22 7 35 6 16 3 22 -8
22 -9 0 -59 16 -112 37 -81 31 -95 39 -91 55 4 14 -2 22 -21 29 -15 6 -29 13
-32 17 -3 4 -17 15 -32 24 -25 17 -27 16 -40 -4z"/>
<path d="M4586 1974 c-4 -11 -14 -15 -32 -11 -22 4 -28 -2 -50 -45 -14 -28
-23 -57 -19 -66 3 -8 -6 -32 -20 -54 -20 -30 -30 -37 -48 -33 -18 4 -26 -2
-43 -32 -12 -21 -22 -42 -22 -47 0 -5 -6 -12 -13 -17 -11 -6 -10 -9 3 -14 9
-4 15 -12 12 -19 -3 -7 7 -21 21 -32 15 -10 36 -27 47 -36 26 -22 38 -23 52
-2 10 13 29 6 149 -56 75 -39 137 -74 137 -77 0 -11 -62 -103 -69 -103 -4 0
-77 22 -162 50 l-154 50 -15 -21 c-14 -21 -17 -29 -27 -79 -4 -24 0 -27 132
-70 98 -32 147 -54 171 -75 52 -47 59 -52 81 -59 16 -5 23 -2 28 14 5 16 12
20 29 16 20 -5 24 1 40 52 10 31 29 81 44 110 22 45 29 52 48 48 25 -7 49 12
59 44 3 11 10 20 15 20 15 0 18 49 2 55 -8 3 -12 12 -8 21 4 10 -4 21 -25 32
-17 9 -40 25 -51 35 -12 9 -25 17 -29 17 -4 0 -12 -8 -18 -17 -9 -16 -23 -12
-145 49 -75 38 -136 71 -136 76 0 11 50 82 58 82 4 0 62 -23 130 -51 67 -29
124 -50 126 -48 13 14 53 115 47 120 -3 3 -54 26 -113 50 -61 24 -108 49 -108
56 0 8 -11 18 -25 23 -14 5 -25 13 -25 18 0 7 -52 42 -63 42 -3 0 -8 -7 -11
-16z"/>
<path d="M1560 1929 c0 -6 -4 -8 -9 -5 -5 3 -14 -1 -21 -9 -7 -8 -18 -15 -25
-15 -6 0 -18 -12 -26 -26 -14 -28 -113 -79 -131 -68 -6 4 -36 8 -68 10 l-59 3
-3 -37 c-2 -27 -9 -40 -25 -47 -17 -7 -23 -18 -23 -42 0 -17 5 -35 11 -38 5
-4 8 -12 6 -18 -2 -7 3 -18 11 -27 12 -11 14 -35 9 -130 l-7 -115 66 -44 c49
-33 64 -49 61 -63 -3 -10 -1 -20 3 -23 5 -3 16 -28 25 -55 l17 -50 28 15 c39
20 60 19 86 -6 19 -18 23 -19 37 -5 9 9 20 16 26 16 6 0 11 7 11 15 0 8 7 15
16 15 8 0 13 3 10 8 -15 24 109 91 143 76 9 -4 21 -6 26 -4 9 2 46 6 99 9 14
1 17 6 12 26 -4 15 -2 25 4 25 16 0 6 61 -18 111 -25 55 -42 134 -42 202 0 52
-1 53 -61 106 -34 30 -58 59 -55 66 8 22 -54 127 -71 121 -8 -4 -20 -3 -26 1
-19 12 -37 12 -37 2z m123 -406 c10 -59 14 -110 10 -114 -5 -4 -53 -23 -109
-44 l-101 -37 -72 58 c-58 46 -71 62 -67 78 3 12 6 58 6 102 l0 81 103 45 102
45 56 -54 55 -54 17 -106z"/>
<path d="M2121 1885 c-42 -38 -51 -42 -51 -21 0 10 -17 13 -70 13 l-71 -1 7
-57 c6 -56 6 -57 -25 -73 -34 -18 -39 -37 -16 -56 9 -7 14 -19 11 -27 -3 -7
-2 -13 3 -13 22 0 32 -82 29 -237 -3 -183 -9 -171 78 -179 l51 -5 7 47 c3 26
6 129 6 228 l0 182 46 33 47 33 31 -31 c27 -28 29 -33 18 -52 -12 -18 -11 -24
5 -40 30 -30 44 -49 37 -49 -4 0 4 -9 17 -21 23 -20 24 -25 23 -160 -1 -133 2
-144 29 -140 4 0 7 -4 7 -10 0 -7 10 -9 25 -7 14 3 25 2 25 -2 0 -5 9 -6 20
-3 13 3 22 17 26 40 10 52 -1 335 -13 358 -10 18 -5 27 39 73 l49 52 42 -25
c23 -13 58 -37 77 -53 l35 -30 0 -190 c0 -105 3 -193 6 -197 4 -3 31 -8 61
-11 l55 -5 6 78 c3 43 2 148 -3 233 l-8 155 -53 48 c-30 27 -98 73 -151 104
l-98 55 -69 -73 -68 -74 -78 73 c-42 39 -83 72 -91 72 -8 0 -31 -16 -53 -35z"/>
<path d="M2962 1912 c-21 -3 -22 -7 -16 -58 7 -53 6 -54 -25 -67 -17 -7 -28
-16 -25 -20 4 -4 8 -24 10 -44 1 -21 3 -43 3 -50 1 -6 10 -9 21 -6 19 5 20 0
20 -101 0 -58 -2 -106 -4 -106 -3 0 -16 4 -30 10 -15 5 -26 6 -26 0 0 -5 -6
-15 -14 -22 -7 -8 -17 -33 -21 -56 l-7 -41 49 -14 48 -14 -1 -186 0 -186 25
-9 c15 -4 44 -8 66 -8 l40 1 9 168 c6 112 12 167 20 167 6 0 51 -20 100 -45
l88 -45 57 59 c32 32 85 74 118 95 l60 37 6 151 c4 83 7 186 7 230 l0 78 -29
0 c-16 0 -32 6 -34 13 -4 8 -6 9 -6 0 -1 -8 -10 -9 -30 -3 -28 8 -29 6 -36
-28 -4 -19 -6 -109 -6 -198 l1 -162 -52 -39 c-28 -21 -60 -44 -70 -52 -16 -12
-25 -11 -66 7 -26 12 -64 28 -84 36 l-38 15 -1 198 c0 109 -4 220 -7 247 l-7
48 -45 2 c-25 0 -55 0 -68 -2z"/>
<path d="M4076 1867 c-4 -12 -9 -120 -13 -240 l-6 -217 -55 -35 -55 -34 -38
21 c-21 12 -55 39 -76 60 l-38 39 3 131 c1 71 6 157 11 189 7 52 6 59 -11 65
-10 3 -18 9 -18 13 0 5 -11 6 -25 3 -14 -2 -25 0 -25 7 0 7 -8 7 -22 2 -29
-10 -34 -45 -44 -282 l-7 -177 48 -51 c52 -55 111 -101 187 -144 l47 -27 86
45 87 45 27 -19 c15 -11 47 -27 71 -37 43 -18 44 -17 59 6 15 22 18 30 28 81
4 22 0 28 -26 37 -17 6 -31 14 -31 17 0 3 14 18 32 34 l31 28 -34 32 c-19 18
-33 36 -32 39 3 13 -12 27 -27 27 -17 0 -18 36 -10 234 l5 113 -30 4 c-16 1
-44 5 -62 8 -26 3 -32 0 -37 -17z"/>
</g>
</svg>
